<svg xmlns="http://www.w3.org/2000/svg" viewBox="0 0 24 24">
  <title>24_solid_logout</title>
  <g id="Ebene_19" data-name="Ebene 19">
    <path d="M23,13H9a1,1,0,0,1,0-2H23a1,1,0,0,1,0,2Z"/>
    <path d="M19,17a1,1,0,0,1-.707-1.707L21.58594,12,18.293,8.707A.99989.99989,0,0,1,19.707,7.293l4,4a.99962.99962,0,0,1,0,1.41406l-4,4A.99676.99676,0,0,1,19,17Z"/>
    <path d="M14.23535,24H2.76465A2.89278,2.89278,0,0,1,0,21V3A2.89278,2.89278,0,0,1,2.76465,0h11.4707A2.89278,2.89278,0,0,1,17,3V8a1,1,0,0,1-2,0V3a.91934.91934,0,0,0-.76465-1H2.76465A.91934.91934,0,0,0,2,3V21a.91934.91934,0,0,0,.76465,1h11.4707A.91934.91934,0,0,0,15,21V16a1,1,0,0,1,2,0v5A2.89278,2.89278,0,0,1,14.23535,24Z"/>
  </g>
</svg>
