<svg xmlns="http://www.w3.org/2000/svg" viewBox="0 0 24 24">
  <title>24_solid_download</title>
  <g id="Ebene_17" data-name="Ebene 17">
    <g>
      <path d="M23.98846,13.94275a1.6492,1.6492,0,0,0-.10223-.3844c-.00873-.01764-.00818-.03711-.01807-.05444L20.44385,7.51172A3.00042,3.00042,0,0,0,17.83881,6H16a1,1,0,0,0,0,2h1.83936a1.00281,1.00281,0,0,1,.86816.50391L21.67914,13H18a1,1,0,0,0-.83207.44531L15.76171,15.5547A1,1,0,0,1,14.92966,16H9.07034a1,1,0,0,1-.83205-.4453L6.832,13.44531A1,1,0,0,0,6,13H2.72314L5.29257,8.50375A.99981.99981,0,0,1,6.16064,8H8A1,1,0,0,0,8,6H6.16064A2.99944,2.99944,0,0,0,3.55643,7.51124L.13184,13.50391c-.00989.01733-.00934.0368-.01807.05444a.976.976,0,0,0-.063.19025.97879.97879,0,0,0-.03918.19415C.01031,13.96277,0,13.97968,0,14v7a3,3,0,0,0,3,3H21a3,3,0,0,0,3-3V14C24,13.97968,23.98969,13.96277,23.98846,13.94275Z"/>
      <path d="M8.293,10.293a.99962.99962,0,0,0,0,1.41406l2.99933,2.99933a1.00329,1.00329,0,0,0,1.4154,0L15.707,11.707A.99989.99989,0,0,0,14.293,10.293L13,11.58594V1a1,1,0,0,0-2,0V11.58594L9.707,10.293A.99962.99962,0,0,0,8.293,10.293Z"/>
    </g>
  </g>
</svg>
