<svg xmlns="http://www.w3.org/2000/svg" viewBox="0 0 24 24">
  <title>24_solid_locker</title>
  <g id="Ebene_20" data-name="Ebene 20">
    <g>
      <circle cx="12" cy="13" r="1"/>
      <path d="M19,6.05054V6c0-2.15332-2.33887-6-7-6S5,3.84668,5,6v.05054A2.99809,2.99809,0,0,0,2.5,9V21a3.00328,3.00328,0,0,0,3,3h13a3.00328,3.00328,0,0,0,3-3V9A2.99809,2.99809,0,0,0,19,6.05054Zm-6,9.76519V18a1,1,0,0,1-2,0V15.81567a2.99994,2.99994,0,1,1,2,.00006ZM7,6a4.89387,4.89387,0,0,1,5-4,4.89387,4.89387,0,0,1,5,4Z"/>
    </g>
  </g>
</svg>
