<svg xmlns="http://www.w3.org/2000/svg" viewBox="0 0 24 24">
  <title>24_solid_calendar</title>
  <g id="Ebene_21" data-name="Ebene 21">
    <path d="M16,0a.99974.99974,0,0,0-1,1V5a1,1,0,0,0,2,0V1A.99974.99974,0,0,0,16,0Z"/>
    <path d="M8,0A.99974.99974,0,0,0,7,1V5A1,1,0,0,0,9,5V1A.99974.99974,0,0,0,8,0Z"/>
    <path d="M21,2H18V5a2,2,0,0,1-4,0V2H10V5A2,2,0,0,1,6,5V2H3A3.00328,3.00328,0,0,0,0,5V21a3.00328,3.00328,0,0,0,3,3H21a3.00328,3.00328,0,0,0,3-3V5A3.00328,3.00328,0,0,0,21,2Zm1,19a1,1,0,0,1-1,1H3a1,1,0,0,1-1-1V10A1,1,0,0,1,3,9H21a1,1,0,0,1,1,1Z"/>
  </g>
</svg>
