<svg xmlns="http://www.w3.org/2000/svg" viewBox="0 0 24 24">
  <title>24_solid_email</title>
  <g id="Ebene_15" data-name="Ebene 15">
    <path d="M21.10254,3H2.89746A2.90075,2.90075,0,0,0,0,5.89746V18.10254A2.90075,2.90075,0,0,0,2.89746,21H21.10254A2.90075,2.90075,0,0,0,24,18.10254V5.89746A2.90075,2.90075,0,0,0,21.10254,3ZM7.707,14.707l-3,3A.99989.99989,0,0,1,3.293,16.293l3-3A.99989.99989,0,0,1,7.707,14.707ZM12,14a.99493.99493,0,0,1-.59961-.2002l-8-6A.99961.99961,0,1,1,4.59961,6.2002L12,11.75l7.40039-5.5498a.99961.99961,0,1,1,1.19922,1.5996l-8,6A.99493.99493,0,0,1,12,14Zm8.707,3.707a.99963.99963,0,0,1-1.41406,0l-3-3A.99989.99989,0,0,1,17.707,13.293l3,3A.99962.99962,0,0,1,20.707,17.707Z"/>
  </g>
</svg>
