<svg xmlns="http://www.w3.org/2000/svg" viewBox="0 0 24 24">
  <title>24_solid_user</title>
  <g id="Ebene_1" data-name="Ebene 1">
    <path d="M23.793,20.04541c-.11231-.21387-.22412-.45557-.34473-.71484A8.40763,8.40763,0,0,0,18.773,14.40283a8.51455,8.51455,0,0,1-1.43543-.74981C15.89917,15.71338,13.86627,17,12,17c-1.93329,0-4.04333-1.38269-5.488-3.57416a12.77,12.77,0,0,1-1.28448.581C2.39111,15.08838,1.31641,17.55078.605,19.18066c-.14111.32422-.269.61963-.39795.86524a1.78773,1.78773,0,0,0-.08545,1.47949,1.92607,1.92607,0,0,0,1.15088,1.10254C2.69434,23.14014,5.978,24,12,24s9.30566-.85986,10.727-1.37207a1.92561,1.92561,0,0,0,1.15137-1.10254A1.789,1.789,0,0,0,23.793,20.04541Z"/>
    <path d="M12,15c-3.30273,0-6.2002-3.50488-6.2002-7.5C5.7998,2.94385,8.2334,0,12,0s6.2002,2.94385,6.2002,7.5C18.2002,11.49512,15.30273,15,12,15Z"/>
  </g>
</svg>
