<svg xmlns="http://www.w3.org/2000/svg" viewBox="0 0 24 24">
  <title>24_solid_login</title>
  <g id="Ebene_18" data-name="Ebene 18">
    <path d="M15,13H1a1,1,0,0,1,0-2H15a1,1,0,0,1,0,2Z"/>
    <path d="M11,17a1,1,0,0,1-.707-1.707L13.58594,12,10.293,8.707A.99989.99989,0,0,1,11.707,7.293l4,4a.99962.99962,0,0,1,0,1.41406l-4,4A.99676.99676,0,0,1,11,17Z"/>
    <path d="M21.23535,24H9.76465A2.89278,2.89278,0,0,1,7,21V16a1,1,0,0,1,2,0v5a.919.919,0,0,0,.76465,1h11.4707A.91934.91934,0,0,0,22,21V3a.91934.91934,0,0,0-.76465-1H9.76465A.919.919,0,0,0,9,3V8A1,1,0,0,1,7,8V3A2.89278,2.89278,0,0,1,9.76465,0h11.4707A2.89278,2.89278,0,0,1,24,3V21A2.89278,2.89278,0,0,1,21.23535,24Z"/>
  </g>
</svg>
