<svg xmlns="http://www.w3.org/2000/svg" viewBox="0 0 24 24">
  <title>24_solid_upload</title>
  <g id="Ebene_16" data-name="Ebene 16">
    <g>
      <path d="M23.98846,13.94275a1.6492,1.6492,0,0,0-.10223-.3844c-.00873-.01764-.00818-.03711-.01807-.05444L20.44357,7.51124A2.99944,2.99944,0,0,0,17.83936,6H16a1,1,0,0,0,0,2h1.83936a.99981.99981,0,0,1,.86807.50375L21.27686,13H18a1,1,0,0,0-.83207.44531L15.76171,15.5547A1,1,0,0,1,14.92966,16H9.07034a1,1,0,0,1-.83205-.4453L6.832,13.44531A1,1,0,0,0,6,13H2.72314L5.29248,8.50391A1.00012,1.00012,0,0,1,6.16082,8H8A1,1,0,0,0,8,6H6.16119a3.00042,3.00042,0,0,0-2.605,1.51172L.13184,13.50391c-.00989.01733-.00934.0368-.01807.05444a.976.976,0,0,0-.063.19025.97879.97879,0,0,0-.03918.19415C.01031,13.96277,0,13.97968,0,14v7a3,3,0,0,0,3,3H21a3,3,0,0,0,3-3V14C24,13.97968,23.98969,13.96277,23.98846,13.94275Z"/>
      <path d="M9.707,4.707,11,3.41406V14a1,1,0,0,0,2,0V3.41406l1.293,1.293A.99989.99989,0,0,0,15.707,3.293L12.7077.29364a1.00326,1.00326,0,0,0-1.4154,0L8.293,3.293A.99989.99989,0,0,0,9.707,4.707Z"/>
    </g>
  </g>
</svg>
