<svg xmlns="http://www.w3.org/2000/svg" width="24" height="24" viewBox="0 0 24 24"><title>solid_setting</title><path d="M23.01294,10.42108l-2.16821-.39221a1.24209,1.24209,0,0,1-.93543-.83447,8.3109,8.3109,0,0,0-.33673-.80957,1.22755,1.22755,0,0,1,.07233-1.23951l1.13067-1.63269a1.28064,1.28064,0,0,0-.00933-1.71691l-.56134-.56134a1.20067,1.20067,0,0,0-1.53254-.13813l-1.81378,1.256a1.23849,1.23849,0,0,1-1.24792.07294,8.47438,8.47438,0,0,0-.8111-.33746,1.23192,1.23192,0,0,1-.82642-.92835c-.11114-.61126-.2724-1.49829-.39575-2.17694A1.1969,1.1969,0,0,0,12.39728,0h-.79285a1.20176,1.20176,0,0,0-1.18237.98669l-.30841,1.6955a1.24582,1.24582,0,0,1-.46674.76508l-1.29846.99762a1.19384,1.19384,0,0,1-1.207-.09253L5.327,3.09619a1.20027,1.20027,0,0,0-1.53187.13819l-.56134.56134A1.19962,1.19962,0,0,0,3.09583,5.327L4.35236,7.14142a1.235,1.235,0,0,1,.07507,1.24341,8.29993,8.29993,0,0,0-.33655.809,1.23572,1.23572,0,0,1-.93078.83417l-1.95221.35418A1.2806,1.2806,0,0,0,0,11.60272v.79456a1.20076,1.20076,0,0,0,.98706,1.18158l2.16821.39221a1.24227,1.24227,0,0,1,.93543.83453,8.3171,8.3171,0,0,0,.33673.80957,1.22743,1.22743,0,0,1-.07233,1.23944L3.22443,18.4873a1.28073,1.28073,0,0,0,.00933,1.717l.56134.56134a1.20066,1.20066,0,0,0,1.53254.13807l1.81378-1.25605a1.19949,1.19949,0,0,1,1.207-.09259,8.47271,8.47271,0,0,0,.85156.357,1.23976,1.23976,0,0,1,.8277.93323l.39441,2.16937A1.2,1.2,0,0,0,11.60272,24h.79456a1.19974,1.19974,0,0,0,1.18036-.98505l.39465-2.16967a1.23955,1.23955,0,0,1,.82739-.93311,8.48234,8.48234,0,0,0,.81079-.33734,1.23145,1.23145,0,0,1,1.24414.07007L18.48712,20.775a1.28142,1.28142,0,0,0,1.71778-.0094l.56134-.56134a1.19963,1.19963,0,0,0,.13793-1.53125l-1.25653-1.81445a1.23513,1.23513,0,0,1-.07507-1.24347,8.30506,8.30506,0,0,0,.33655-.809,1.23561,1.23561,0,0,1,.93078-.83417l1.95221-.35418A1.28064,1.28064,0,0,0,24,12.39728v-.79456A1.20083,1.20083,0,0,0,23.01294,10.42108ZM12,16a4,4,0,1,1,4-4A4.00437,4.00437,0,0,1,12,16Z"/></svg>