<svg xmlns="http://www.w3.org/2000/svg" width="24" height="24" viewBox="0 0 24 24"><title>solid_save</title><path d="M23.12109,4.707,19.293.87891A2.98152,2.98152,0,0,0,17.17188,0H3A3.00328,3.00328,0,0,0,0,3V21a3.00328,3.00328,0,0,0,3,3H21a3.00328,3.00328,0,0,0,3-3V6.82812A2.98152,2.98152,0,0,0,23.12109,4.707ZM16.0013,2.99967l.00033,1a1,1,0,0,1-1,1.00033H9A1,1,0,0,1,8,4V3A1,1,0,0,1,9,2h6.0013A1,1,0,0,1,16.0013,2.99967ZM6,21V13.93262A.93262.93262,0,0,1,6.93262,13H17.06738A.93262.93262,0,0,1,18,13.93262V21a1,1,0,0,1-1,1H7A1,1,0,0,1,6,21Z"/></svg>