<svg xmlns="http://www.w3.org/2000/svg" viewBox="0 0 24 24">
  <title>solid_download</title>
  <path d="M24,14v7a3,3,0,0,1-3,3H3a3,3,0,0,1-3-3V14c0-.02032.01031-.03723.01154-.05725a.97879.97879,0,0,1,.03918-.19415.976.976,0,0,1,.06305-.19025c.00873-.01764.00818-.03711.01807-.05444L3.55643,7.51124A2.99944,2.99944,0,0,1,6.16064,6H8A1,1,0,0,1,8,8H6.16064a.99981.99981,0,0,0-.86807.50375L2.72314,13H6a1,1,0,0,1,.83207.44531L8.23829,15.5547A1,1,0,0,0,9.07034,16h5.85932a1,1,0,0,0,.83205-.4453L17.168,13.44531A1,1,0,0,1,18,13h3.6791L18.70752,8.50391A1.00281,1.00281,0,0,0,17.83936,8H16a1,1,0,0,1,0-2h1.83881a3.00042,3.00042,0,0,1,2.605,1.51172l3.42431,5.99219c.00989.01733.00934.0368.01807.05444a1.6492,1.6492,0,0,1,.10223.3844C23.98969,13.96277,24,13.97968,24,14ZM8.293,10.293a.99962.99962,0,0,0,0,1.41406l2.99933,2.99933a1.00329,1.00329,0,0,0,1.4154,0L15.707,11.707A.99989.99989,0,0,0,14.293,10.293L13,11.58594V1a1,1,0,0,0-2,0V11.58594L9.707,10.293A.99962.99962,0,0,0,8.293,10.293Z"/>
</svg>
