<svg xmlns="http://www.w3.org/2000/svg" viewBox="0 0 24 24">
  <title>solid_bell</title>
  <path d="M22.50586,16.69043l-3.15625-6.50879A28.68518,28.68518,0,0,1,18.376,6.70215c-.21778-.90918-.42188-1.76758-.64551-2.48633a6.00256,6.00256,0,0,0-11.46094,0C6.0459,4.93457,5.8418,5.793,5.624,6.70215a29.20234,29.20234,0,0,1-.957,3.44629l-3.17285,6.542A2.99945,2.99945,0,0,0,4.19238,21H8.142A3.98073,3.98073,0,0,0,15.858,21h3.94959a2.99945,2.99945,0,0,0,2.69824-4.30957ZM12,22a1.99377,1.99377,0,0,1-1.72168-1h3.44336A1.99377,1.99377,0,0,1,12,22Z"/>
</svg>
