<svg xmlns="http://www.w3.org/2000/svg" width="24" height="24" viewBox="0 0 24 24"><title>solid_logout</title><path d="M23.70575,12.70831,19.707,16.707A.99989.99989,0,0,1,18.293,15.293L20.58594,13H9a1,1,0,0,1,0-2H20.58594L18.293,8.707A.99989.99989,0,0,1,19.707,7.293l3.99872,3.99872a1.00315,1.00315,0,0,1,0,1.41662ZM16,15a.99943.99943,0,0,0-1,1v5a.91934.91934,0,0,1-.76465,1H2.76465A.91934.91934,0,0,1,2,21V3a.91934.91934,0,0,1,.76465-1h11.4707A.91934.91934,0,0,1,15,3V8a1,1,0,0,0,2,0V3a2.89278,2.89278,0,0,0-2.76465-3H2.76465A2.89278,2.89278,0,0,0,0,3V21a2.89278,2.89278,0,0,0,2.76465,3h11.4707A2.89278,2.89278,0,0,0,17,21V16A.99943.99943,0,0,0,16,15Z"/></svg>