<svg xmlns="http://www.w3.org/2000/svg" viewBox="0 0 24 24">
  <title>solid_login</title>
  <path d="M12.58594,13H1a1,1,0,0,1,0-2H12.58594L10.293,8.707A.99989.99989,0,0,1,11.707,7.293l3.99872,3.99872a1.00315,1.00315,0,0,1,0,1.41662L11.707,16.707A.99989.99989,0,0,1,10.293,15.293ZM21.23535,0H9.76465A2.89278,2.89278,0,0,0,7,3V8A1,1,0,0,0,9,8V3a.919.919,0,0,1,.76465-1h11.4707A.91934.91934,0,0,1,22,3V21a.91934.91934,0,0,1-.76465,1H9.76465A.919.919,0,0,1,9,21V16a1,1,0,0,0-2,0v5a2.89278,2.89278,0,0,0,2.76465,3h11.4707A2.89278,2.89278,0,0,0,24,21V3A2.89278,2.89278,0,0,0,21.23535,0Z"/>
</svg>
