<svg xmlns="http://www.w3.org/2000/svg" viewBox="0 0 24 24">
  <title>solid_user</title>
  <path d="M23.87842,21.52539A1.92561,1.92561,0,0,1,22.727,22.62793C21.30566,23.14014,18.022,24,12,24s-9.30566-.85986-10.72754-1.37207A1.92607,1.92607,0,0,1,.12158,21.52539,1.78773,1.78773,0,0,1,.207,20.0459c.12891-.24561.25684-.541.39795-.86524.71143-1.62988,1.78613-4.09228,4.62256-5.17382a12.77,12.77,0,0,0,1.28448-.581C7.95667,15.61731,10.06671,17,12,17c1.86627,0,3.89917-1.28662,5.33752-3.347a8.51455,8.51455,0,0,0,1.43543.74981,8.40763,8.40763,0,0,1,4.67529,4.92774c.12061.25927.23242.501.34473.71484A1.789,1.789,0,0,1,23.87842,21.52539ZM18.2002,7.5C18.2002,2.94385,15.7666,0,12,0S5.7998,2.94385,5.7998,7.5C5.7998,11.49512,8.69727,15,12,15S18.2002,11.49512,18.2002,7.5Z"/>
</svg>
