<svg xmlns="http://www.w3.org/2000/svg" width="24" height="24" viewBox="0 0 24 24"><title>solid_upload</title><path d="M24,14v7a3,3,0,0,1-3,3H3a3,3,0,0,1-3-3V14c0-.02032.01031-.03723.01154-.05725a.97879.97879,0,0,1,.03918-.19415.976.976,0,0,1,.06305-.19025c.00873-.01764.00818-.03711.01807-.05444L3.55615,7.51172A3.00042,3.00042,0,0,1,6.16119,6H8A1,1,0,0,1,8,8H6.16082a1.00012,1.00012,0,0,0-.86834.50391L2.72314,13H6a1,1,0,0,1,.83207.44531L8.23829,15.5547A1,1,0,0,0,9.07034,16h5.85932a1,1,0,0,0,.83205-.4453L17.168,13.44531A1,1,0,0,1,18,13h3.27682L18.70743,8.50375A.99981.99981,0,0,0,17.83936,8H16a1,1,0,0,1,0-2h1.83936a2.99944,2.99944,0,0,1,2.60421,1.51124l3.42459,5.99267c.00989.01733.00934.0368.01807.05444a1.6492,1.6492,0,0,1,.10223.3844C23.98969,13.96277,24,13.97968,24,14ZM9.707,4.707,11,3.41406V14a1,1,0,0,0,2,0V3.41406l1.293,1.293A.99989.99989,0,0,0,15.707,3.293L12.7077.29364a1.00326,1.00326,0,0,0-1.4154,0L8.293,3.293A.99989.99989,0,0,0,9.707,4.707Z"/></svg>