<svg xmlns="http://www.w3.org/2000/svg" viewBox="0 0 24 24">
  <title>24_upload</title>
  <g id="Ebene_16" data-name="Ebene 16">
    <path d="M21,23H3a2,2,0,0,1-2-2V14H6l2,3h8l2-3h5v7A2,2,0,0,1,21,23Z" style="fill: none;stroke: #000;stroke-linecap: round;stroke-linejoin: round;stroke-width: 2px"/>
    <path d="M1,14,4.42416,8.00772A2,2,0,0,1,6.16065,7H8" style="fill: none;stroke: #000;stroke-linecap: round;stroke-linejoin: round;stroke-width: 2px"/>
    <path d="M23,14,19.57584,8.00772A2,2,0,0,0,17.83935,7H16" style="fill: none;stroke: #000;stroke-linecap: round;stroke-linejoin: round;stroke-width: 2px"/>
    <line x1="12" y1="14" x2="12" y2="1" style="fill: none;stroke: #000;stroke-linecap: round;stroke-miterlimit: 10;stroke-width: 2px"/>
    <polyline points="9 4 12 1 15 4" style="fill: none;stroke: #000;stroke-linecap: round;stroke-linejoin: round;stroke-width: 2px"/>
  </g>
</svg>
