<svg xmlns="http://www.w3.org/2000/svg" width="24" height="24" viewBox="0 0 24 24"><title>stroke_setting</title><circle cx="12" cy="12" r="4" fill="none" stroke="#000" stroke-linecap="round" stroke-linejoin="round" stroke-width="2"/><path d="M23,12.33085v-.6617a2,2,0,0,0-1.64223-1.96774l-1.80833-.32879a7.934,7.934,0,0,0-.35413-.85193l1.047-1.51228a2,2,0,0,0-.23017-2.55263l-.46789-.46789a2,2,0,0,0-2.55263-.23017l-1.51228,1.047a7.934,7.934,0,0,0-.85193-.35413l-.32879-1.80833A2,2,0,0,0,12.33085,1h-.6617A2,2,0,0,0,9.70141,2.64223L9.37262,4.45056a7.934,7.934,0,0,0-.85193.35413l-1.51228-1.047a2,2,0,0,0-2.55263.23017l-.46789.46789a2,2,0,0,0-.23017,2.55263l1.047,1.51228a7.934,7.934,0,0,0-.35413.85193l-1.80833.32879A2,2,0,0,0,1,11.66915v.6617a2,2,0,0,0,1.64223,1.96774l1.80833.32879a7.934,7.934,0,0,0,.35413.85193l-1.047,1.51228a2,2,0,0,0,.23017,2.55263l.46789.46789a2,2,0,0,0,2.55263.23017l1.51228-1.047a7.934,7.934,0,0,0,.85193.35413l.32879,1.80833A2,2,0,0,0,11.66915,23h.6617a2,2,0,0,0,1.96774-1.64223l.32879-1.80833a7.934,7.934,0,0,0,.85193-.35413l1.51228,1.047a2,2,0,0,0,2.55263-.23017l.46789-.46789a2,2,0,0,0,.23017-2.55263l-1.047-1.51228a7.934,7.934,0,0,0,.35413-.85193l1.80833-.32879A2,2,0,0,0,23,12.33085Z" fill="none" stroke="#000" stroke-linecap="round" stroke-linejoin="round" stroke-width="2" fill-rule="evenodd"/></svg>