<svg xmlns="http://www.w3.org/2000/svg" width="24" height="24" viewBox="0 0 24 24"><title>stroke_upload</title><path d="M21,23H3a2,2,0,0,1-2-2V14H6l2,3h8l2-3h5v7A2,2,0,0,1,21,23Z" fill="none" stroke="#000" stroke-linecap="round" stroke-linejoin="round" stroke-width="2"/><path d="M1,14,4.42416,8.00772A2,2,0,0,1,6.16065,7H8" fill="none" stroke="#000" stroke-linecap="round" stroke-linejoin="round" stroke-width="2"/><path d="M23,14,19.57584,8.00772A2,2,0,0,0,17.83935,7H16" fill="none" stroke="#000" stroke-linecap="round" stroke-linejoin="round" stroke-width="2"/><line x1="12" y1="14" x2="12" y2="1" fill="none" stroke="#000" stroke-linecap="round" stroke-miterlimit="10" stroke-width="2"/><polyline points="9 4 12 1 15 4" fill="none" stroke="#000" stroke-linecap="round" stroke-linejoin="round" stroke-width="2"/></svg>