<svg xmlns="http://www.w3.org/2000/svg" width="24" height="24" viewBox="0 0 24 24"><title>stroke_edit</title><path d="M18.90785,2l.03737.01548,3.03932,3.03931a.05946.05946,0,0,1,0,.07473L5.114,22H2V18.886L15.70114,5.18482l3.16934-3.16934A.04667.04667,0,0,1,18.90785,2m0-2a2.04641,2.04641,0,0,0-1.45158.60127L14.28693,3.7706,0,18.05753V24H5.94246L23.39874,6.54373a2.05285,2.05285,0,0,0,0-2.90316L20.35943.60127A2.04639,2.04639,0,0,0,18.90785,0Z"/><line x1="19.77035" y1="8.22965" x2="15.77035" y2="4.22965" fill="none" stroke="#000" stroke-linecap="round" stroke-linejoin="round" stroke-width="2"/></svg>