<svg xmlns="http://www.w3.org/2000/svg" viewBox="0 0 24 24">
  <title>stroke_succeeded</title>
  <g>
    <circle cx="12" cy="12" r="11" fill="none" stroke="#000" stroke-linecap="round" stroke-linejoin="round" stroke-width="2"/>
    <path d="M17.15533,8.34467,9.84467,15.65533l-3-3M17.15533,8.34467,9.84467,15.65533l-3-3M17.15533,8.34467,9.84467,15.65533l-3-3M17.15533,8.34467,9.84467,15.65533l-3-3M17.15533,8.34467,9.84467,15.65533l-3-3M17.15533,8.34467,9.84467,15.65533l-3-3M17.15533,8.34467,9.84467,15.65533l-3-3M17.15533,8.34467,9.84467,15.65533l-3-3M17.15533,8.34467,9.84467,15.65533l-3-3M17.15533,8.34467,9.84467,15.65533l-3-3M17.15533,8.34467,9.84467,15.65533l-3-3M17.15533,8.34467,9.84467,15.65533l-3-3M17.15533,8.34467,9.84467,15.65533l-3-3M17.15533,8.34467,9.84467,15.65533l-3-3M17.15533,8.34467,9.84467,15.65533l-3-3M17.15533,8.34467,9.84467,15.65533l-3-3M17.15533,8.34467,9.84467,15.65533l-3-3M17.15533,8.34467,9.84467,15.65533l-3-3M17.15533,8.34467,9.84467,15.65533l-3-3M17.15533,8.34467,9.84467,15.65533l-3-3M17.15533,8.34467,9.84467,15.65533l-3-3M17.15533,8.34467,9.84467,15.65533l-3-3M17.15533,8.34467,9.84467,15.65533l-3-3M17.15533,8.34467,9.84467,15.65533l-3-3M17.15533,8.34467,9.84467,15.65533l-3-3M17.15533,8.34467,9.84467,15.65533l-3-3M17.15533,8.34467,9.84467,15.65533l-3-3M17.15533,8.34467,9.84467,15.65533l-3-3M17.15533,8.34467,9.84467,15.65533l-3-3M17.15533,8.34467,9.84467,15.65533l-3-3M17.15533,8.34467,9.84467,15.65533l-3-3M17.15533,8.34467,9.84467,15.65533l-3-3" fill="none" stroke="#000" stroke-linecap="round" stroke-linejoin="round" stroke-width="2"/>
  </g>
</svg>
