<svg xmlns="http://www.w3.org/2000/svg" viewBox="0 0 24 24">
  <title>stroke_save</title>
  <g>
    <path d="M21,23H3a2,2,0,0,1-2-2V3A2,2,0,0,1,3,1H17.17157a2,2,0,0,1,1.41422.58579l3.82842,3.82842A2,2,0,0,1,23,6.82843V21A2,2,0,0,1,21,23Z" fill="none" stroke="#000" stroke-linecap="round" stroke-linejoin="round" stroke-width="2"/>
    <path d="M6.93218,12H17.06782A1.93218,1.93218,0,0,1,19,13.93218V23a0,0,0,0,1,0,0H5a0,0,0,0,1,0,0V13.93218A1.93218,1.93218,0,0,1,6.93218,12Z" fill="none" stroke="#000" stroke-linecap="round" stroke-linejoin="round" stroke-width="2"/>
    <path d="M8,1h8a0,0,0,0,1,0,0V4a1,1,0,0,1-1,1H9A1,1,0,0,1,8,4V1A0,0,0,0,1,8,1Z" fill="none" stroke="#000" stroke-linecap="round" stroke-linejoin="round" stroke-width="2"/>
  </g>
</svg>
