<?xml version="1.0" standalone="no"?>
<!DOCTYPE svg PUBLIC "-//W3C//DTD SVG 20010904//EN"
 "http://www.w3.org/TR/2001/REC-SVG-20010904/DTD/svg10.dtd">
<svg version="1.0" xmlns="http://www.w3.org/2000/svg"
 width="700.000000pt" height="700.000000pt" viewBox="0 0 700.000000 700.000000"
 preserveAspectRatio="xMidYMid meet">
<metadata>
Created by potrace 1.11, written by Peter Selinger 2001-2013
</metadata>
<g transform="translate(0.000000,700.000000) scale(0.100000,-0.100000)"
fill="#000000" stroke="none">
<path d="M1390 5734 c-111 -30 -210 -94 -280 -180 -44 -56 -1054 -1803 -1082
-1874 -19 -46 -22 -75 -23 -180 0 -112 3 -131 26 -185 25 -59 1004 -1760 1060
-1841 70 -103 212 -192 339 -214 46 -8 367 -10 1080 -8 905 3 1020 6 1061 20
108 38 194 96 256 172 21 25 126 186 235 358 108 172 357 570 554 883 206 328
369 598 383 635 22 56 25 81 25 185 0 106 -3 127 -25 180 -22 54 -121 227
-621 1090 -245 422 -419 718 -449 762 -53 77 -151 148 -258 187 -55 21 -73 21
-1141 23 -929 2 -1093 0 -1140 -13z"/>
<path d="M4251 5378 c11 -20 139 -244 394 -688 43 -74 172 -299 288 -500 116
-201 222 -390 234 -422 72 -177 67 -392 -11 -564 -13 -28 -238 -394 -501 -815
-263 -420 -480 -770 -483 -777 -8 -22 367 -12 434 12 81 29 183 104 237 176
27 36 251 380 498 765 320 499 455 719 471 765 31 89 32 258 1 341 -11 30
-171 316 -356 635 -184 318 -372 644 -418 724 -125 217 -223 308 -378 354 -42
12 -99 16 -238 16 l-184 0 12 -22z"/>
<path d="M5234 5084 c7 -20 105 -191 439 -769 143 -247 273 -477 288 -510 91
-192 91 -418 0 -610 -15 -33 -167 -278 -337 -545 -171 -267 -347 -543 -393
-615 l-82 -130 120 -3 c141 -3 225 13 312 59 74 40 130 88 178 153 34 46 621
1056 669 1151 71 142 71 328 0 470 -59 116 -638 1108 -675 1158 -105 136 -256
207 -445 207 -69 0 -79 -2 -74 -16z"/>
<path d="M6020 4840 c0 -5 122 -219 271 -477 150 -257 289 -504 310 -548 55
-114 72 -191 72 -315 0 -124 -17 -201 -72 -315 -21 -44 -160 -291 -310 -548
-149 -258 -271 -472 -271 -477 0 -12 44 -4 130 20 127 37 245 128 325 250 88
135 470 808 494 870 23 58 25 80 25 200 0 120 -2 142 -25 200 -23 60 -399 724
-491 867 -94 147 -244 244 -425 277 -18 3 -33 1 -33 -4z"/>
</g>
</svg>
